<svg width="251" height="157" xmlns="http://www.w3.org/2000/svg"><path d="M9.752 21.808c1.392-1.824 3-3.228 4.824-4.212 1.824-.984 3.792-1.476 5.904-1.476 4.848 0 8.424 1.74 10.728 5.22 2.304 3.48 3.456 8.364 3.456 14.652 0 5.904-1.332 10.692-3.996 14.364-2.664 3.672-6.372 5.508-11.124 5.508-4.32 0-7.704-1.584-10.152-4.752L8.96 55H2.84V1.792L9.752.928v20.88zm8.136 28.656c3.024 0 5.34-1.2 6.948-3.6 1.608-2.4 2.412-6.024 2.412-10.872 0-9.6-2.832-14.4-8.496-14.4-1.824 0-3.492.54-5.004 1.62-1.512 1.08-2.844 2.484-3.996 4.212v18.36c1.008 1.488 2.208 2.64 3.6 3.456a8.812 8.812 0 0 0 4.536 1.224zm33.768-12.096c.192 3.984 1.284 6.972 3.276 8.964 1.992 1.992 4.5 2.988 7.524 2.988 1.824 0 3.528-.276 5.112-.828 1.584-.552 3.24-1.404 4.968-2.556l3.096 4.392c-1.776 1.44-3.84 2.556-6.192 3.348a22.419 22.419 0 0 1-7.2 1.188c-5.616 0-9.984-1.8-13.104-5.4-3.12-3.6-4.68-8.4-4.68-14.4 0-3.84.684-7.26 2.052-10.26 1.368-3 3.336-5.364 5.904-7.092 2.568-1.728 5.556-2.592 8.964-2.592 4.896 0 8.76 1.68 11.592 5.04 2.832 3.36 4.248 7.944 4.248 13.752 0 1.152-.048 2.304-.144 3.456H51.656zm9.792-16.848c-2.784 0-5.052.996-6.804 2.988-1.752 1.992-2.748 4.932-2.988 8.82H70.52c-.048-3.792-.876-6.708-2.484-8.748-1.608-2.04-3.804-3.06-6.588-3.06zm58.68 31.536c-1.392.864-3.024 1.548-4.896 2.052a21.787 21.787 0 0 1-5.688.756c-4.176 0-7.404-1.08-9.684-3.24-2.28-2.16-3.42-5.04-3.42-8.64V22.24h-8.568v-5.184h8.568V8.488l6.912-.792v9.36h13.032l-.864 5.184h-12.168v21.672c0 2.112.552 3.684 1.656 4.716 1.104 1.032 2.88 1.548 5.328 1.548 2.544 0 4.944-.6 7.2-1.8l2.592 4.68zm43.2 0c-1.392.864-3.024 1.548-4.896 2.052a21.787 21.787 0 0 1-5.688.756c-4.176 0-7.404-1.08-9.684-3.24-2.28-2.16-3.42-5.04-3.42-8.64V22.24h-8.568v-5.184h8.568V8.488l6.912-.792v9.36h13.032l-.864 5.184h-12.168v21.672c0 2.112.552 3.684 1.656 4.716 1.104 1.032 2.88 1.548 5.328 1.548 2.544 0 4.944-.6 7.2-1.8l2.592 4.68zm17.928-14.688c.192 3.984 1.284 6.972 3.276 8.964 1.992 1.992 4.5 2.988 7.524 2.988 1.824 0 3.528-.276 5.112-.828 1.584-.552 3.24-1.404 4.968-2.556l3.096 4.392c-1.776 1.44-3.84 2.556-6.192 3.348a22.419 22.419 0 0 1-7.2 1.188c-5.616 0-9.984-1.8-13.104-5.4-3.12-3.6-4.68-8.4-4.68-14.4 0-3.84.684-7.26 2.052-10.26 1.368-3 3.336-5.364 5.904-7.092 2.568-1.728 5.556-2.592 8.964-2.592 4.896 0 8.76 1.68 11.592 5.04 2.832 3.36 4.248 7.944 4.248 13.752 0 1.152-.048 2.304-.144 3.456h-25.416zm9.792-16.848c-2.784 0-5.052.996-6.804 2.988-1.752 1.992-2.748 4.932-2.988 8.82h18.864c-.048-3.792-.876-6.708-2.484-8.748-1.608-2.04-3.804-3.06-6.588-3.06zm54-5.328c1.728 0 3.576.288 5.544.864l-1.08 13.32h-5.328v-7.92h-.072c-5.712 0-9.768 4.08-12.168 12.24v15.192h7.704V55H219.2v-5.112h5.832v-27.72H219.2v-5.112h11.088l1.224 8.856c1.488-3.264 3.3-5.7 5.436-7.308 2.136-1.608 4.836-2.412 8.1-2.412zM36.176 104.784c-1.44.48-3.012.792-4.716.936-1.704.144-3.828.216-6.372.216 2.256 1.056 3.948 2.376 5.076 3.96 1.128 1.584 1.692 3.48 1.692 5.688 0 3.792-1.308 6.888-3.924 9.288-2.616 2.4-6.18 3.6-10.692 3.6-2.16 0-3.984-.24-5.472-.72-.528.432-.96.948-1.296 1.548a3.846 3.846 0 0 0-.504 1.908c0 2.016 1.632 3.024 4.896 3.024h6.768c2.592 0 4.92.456 6.984 1.368 2.064.912 3.684 2.16 4.86 3.744 1.176 1.584 1.764 3.36 1.764 5.328 0 3.744-1.596 6.636-4.788 8.676s-7.764 3.06-13.716 3.06c-4.128 0-7.392-.42-9.792-1.26-2.4-.84-4.104-2.1-5.112-3.78-1.008-1.68-1.512-3.864-1.512-6.552h6.264c0 1.488.276 2.676.828 3.564.552.888 1.56 1.56 3.024 2.016 1.464.456 3.564.684 6.3.684 3.984 0 6.9-.504 8.748-1.512 1.848-1.008 2.772-2.496 2.772-4.464 0-1.632-.744-2.904-2.232-3.816-1.488-.912-3.432-1.368-5.832-1.368h-6.624c-3.264 0-5.736-.684-7.416-2.052-1.68-1.368-2.52-3.084-2.52-5.148 0-1.248.36-2.472 1.08-3.672.72-1.2 1.752-2.232 3.096-3.096-2.208-1.152-3.828-2.58-4.86-4.284-1.032-1.704-1.548-3.78-1.548-6.228 0-2.592.648-4.896 1.944-6.912 1.296-2.016 3.108-3.588 5.436-4.716 2.328-1.128 5.004-1.692 8.028-1.692 4.272.048 7.584-.204 9.936-.756 2.352-.552 4.848-1.452 7.488-2.7l1.944 6.12zm-19.368 2.304c-2.736 0-4.812.756-6.228 2.268-1.416 1.512-2.124 3.54-2.124 6.084 0 2.592.72 4.644 2.16 6.156 1.44 1.512 3.552 2.268 6.336 2.268 2.544 0 4.488-.732 5.832-2.196 1.344-1.464 2.016-3.564 2.016-6.3 0-5.52-2.664-8.28-7.992-8.28zM60.8 84.912c1.44 0 2.604.444 3.492 1.332.888.888 1.332 1.98 1.332 3.276 0 1.344-.444 2.448-1.332 3.312-.888.864-2.052 1.296-3.492 1.296-1.392 0-2.532-.432-3.42-1.296-.888-.864-1.332-1.968-1.332-3.312 0-1.296.444-2.388 1.332-3.276.888-.888 2.028-1.332 3.42-1.332zm5.112 50.832h10.584V141H47.48v-5.256H59v-27.432H47.84v-5.256h18.072v32.688zm54.216 3.312c-1.392.864-3.024 1.548-4.896 2.052a21.787 21.787 0 0 1-5.688.756c-4.176 0-7.404-1.08-9.684-3.24-2.28-2.16-3.42-5.04-3.42-8.64V108.24h-8.568v-5.184h8.568v-8.568l6.912-.792v9.36h13.032l-.864 5.184h-12.168v21.672c0 2.112.552 3.684 1.656 4.716 1.104 1.032 2.88 1.548 5.328 1.548 2.544 0 4.944-.6 7.2-1.8l2.592 4.68z" fill="#0069FF" fill-rule="evenodd"/></svg>